<svg width="30" height="29" viewBox="0 0 30 29" fill="none" xmlns="http://www.w3.org/2000/svg">
<path d="M14.042 1.6375V27.3625C14.042 28.2958 13.1816 28.9958 12.2774 28.7917C5.75866 27.3333 0.916992 21.4854 0.916992 14.5C0.916992 7.51459 5.75866 1.66667 12.2774 0.208338C13.1816 0.00417119 14.042 0.704171 14.042 1.6375ZM17.0024 1.6375V11.5688C17.0024 12.3708 17.6587 13.0271 18.4607 13.0271H28.3628C29.2962 13.0271 29.9962 12.1667 29.792 11.2479C28.5524 5.76459 24.2503 1.44792 18.7816 0.208338C17.8628 0.00417119 17.0024 0.704171 17.0024 1.6375ZM17.0024 17.4313V27.3625C17.0024 28.2958 17.8628 28.9958 18.7816 28.7917C24.2649 27.5521 28.567 23.2208 29.8066 17.7375C30.0107 16.8333 29.2962 15.9583 28.3774 15.9583H18.4753C17.6587 15.9729 17.0024 16.6292 17.0024 17.4313Z" fill="#41A07B"/>
</svg>
